<?xml version="1.0" encoding="UTF-8" standalone="no"?>
<svg
   xmlns="http://www.w3.org/2000/svg"
   xmlns:svg="http://www.w3.org/2000/svg"
   height="100%"
   width="100%"
   id="svg2"
   viewBox="0 0 64 64"
   version="1.0">
  <defs id="defs54" />
  <path
     transform="translate(72.5,-13)"
     d="m -14,28 a 14,14 0 1 1 -28,0 14,14 0 1 1 28,0 z"
     style="fill:#85C1E9;fill-opacity:1;stroke:#3498DB;stroke-width:2;stroke-linecap:round;stroke-linejoin:miter;stroke-miterlimit:4;stroke-opacity:1" />
  <path
     transform="translate(46.7,10.3)"
     d="m -12.5,25 a 12.5,12.5 0 1 1 -25,0 12.5,12.5 0 1 1 25,0 z"
     style="fill:#85C1E9;fill-opacity:1;stroke:#3498DB;stroke-width:2;stroke-linecap:round;stroke-linejoin:miter;stroke-miterlimit:4;stroke-opacity:1" />
  <path
     transform="translate(63.7,24.5)"
     d="m -8.5,17 a 8.5,8.5 0 1 1 -17,0 8.5,8.5 0 1 1 17,0 z"
     style="fill:#85C1E9;fill-opacity:1;stroke:#3498DB;stroke-width:2;stroke-linecap:round;stroke-linejoin:miter;stroke-miterlimit:4;stroke-opacity:1" />
  <path
     transform="translate(24,-1)"
     d="m -6.5,13 a 6.5,6.5 0 1 1 -13,0 6.5,6.5 0 1 1 13,0 z"
     style="fill:#85C1E9;fill-opacity:1;stroke:#3498DB;stroke-width:2;stroke-linecap:round;stroke-linejoin:miter;stroke-miterlimit:4;stroke-opacity:1" />
  <path
     transform="translate(21,43)"
     d="m -6,12 a 6,6 0 1 1 -12,0 6,6 0 1 1 12,0 z"
     style="fill:#85C1E9;fill-opacity:1;stroke:#3498DB;stroke-width:2;stroke-linecap:round;stroke-linejoin:miter;stroke-miterlimit:4;stroke-opacity:1" />
  <path
     transform="translate(45,45)"
     d="m -6,12 a 6,6 0 1 1 -12,0 6,6 0 1 1 12,0 z"
     style="fill:#85C1E9;fill-opacity:1;stroke:#3498DB;stroke-width:2;stroke-linecap:round;stroke-linejoin:miter;stroke-miterlimit:4;stroke-opacity:1" />
</svg>
